<svg version="1" xmlns="http://www.w3.org/2000/svg" width="1333.333" height="1333.333" viewBox="0 0 1000.000000 1000.000000"><path d="M275.9 155.2c-.1.4-.1 704.6 0 708l.1 2.8H399.7V713.5c0-83.9.3-152.9.7-153.3.4-.4 29.2-.7 63.9-.8 34.8-.1 70.4-.4 79.2-.8 15.5-.7 19.5-1 30-2.1 2.8-.2 7.7-.7 11-1 3.3-.3 10.3-1.2 15.5-2 5.2-.8 11.3-1.7 13.5-2 2.2-.4 5.6-1 7.5-1.5 1.9-.5 5.1-1.1 7-1.4 6.5-1 26.2-6.6 36.4-10.2 14.8-5.3 28-11.4 40.3-18.5 18.7-10.8 30.4-20.6 42.7-35.9 8.5-10.5 13.8-19.7 21.7-37.5 6.1-14 11.3-36.2 13.6-58.5 1.5-14.7.7-70-1.1-72.9-.2-.3-.7-2.9-1-5.6-1.5-14-6.4-32.1-12.4-46-11.4-26.2-31.8-51.6-53-65.8-12.7-8.4-34.6-18.1-57.3-25.2-17.2-5.4-21.7-6.5-39.9-9.5-13-2.1-32.2-4.1-53.1-5.6-4.6-.3-11.1-.8-14.4-1.1-6.5-.5-274.5-1.7-274.6-1.1zm277.6 109.2c7.8.6 19.9 2.1 24 3 1.1.3 6.3 1.4 11.5 2.5 19.7 4.2 23 5.6 34.5 14.6 15 11.7 18.5 16.3 23.5 31.4 4.7 13.8 6.3 24.8 6.4 41.6 0 11.8-1 23.2-2.4 26.9-.5 1.4-.8 2.6-.5 2.6.9 0-4.6 14.3-7.7 20.2-4 7.6-13.3 17.7-20.8 22.7-14.5 9.7-41.3 18.6-62.5 20.6-3.3.3-7.4.8-9 1-12.4 1.7-147.2 2.9-149.7 1.4-.8-.5-1.1-29.5-1-92.5 0-50.6.1-93.2.1-94.8l.1-2.8 72.8.5c40 .3 76.3.8 80.7 1.1z"/></svg>